<?xml version="1.0" encoding="iso-8859-1"?>
<!-- Uploaded to: SVG Repo, www.svgrepo.com, Generator: SVG Repo Mixer Tools -->
<!DOCTYPE svg PUBLIC "-//W3C//DTD SVG 1.1//EN" "http://www.w3.org/Graphics/SVG/1.1/DTD/svg11.dtd">
<svg fill="#000000" version="1.1" id="Capa_1" xmlns="http://www.w3.org/2000/svg" xmlns:xlink="http://www.w3.org/1999/xlink" 
	 width="800px" height="800px" viewBox="0 0 35.031 35.031"
	 xml:space="preserve">
<g>
	<path d="M35.006,9.158L32.74,21.116c-0.135,0.709-0.753,1.221-1.475,1.221H16.064l0.168,1.021h13.54c0.828,0,1.5,0.673,1.5,1.5
		c0,0.828-0.672,1.5-1.5,1.5H14.957c-0.733,0-1.361-0.53-1.479-1.258l-0.454-2.764h-0.916c-0.721,0-1.34-0.514-1.475-1.223
		L8.367,9.157C8.284,8.718,8.4,8.263,8.685,7.921C8.97,7.577,9.394,7.378,9.839,7.378h0.725l-0.275-1.683H1.5
		c-0.828,0-1.5-0.672-1.5-1.5c0-0.827,0.672-1.5,1.5-1.5h10.062c0.734,0,1.361,0.532,1.48,1.257l0.562,3.426H33.53
		c0.446,0,0.87,0.199,1.155,0.543C34.971,8.266,35.088,8.719,35.006,9.158z M17.313,27.17c-1.428,0-2.583,1.156-2.583,2.584
		c0,1.426,1.155,2.582,2.583,2.582c1.427,0,2.583-1.156,2.583-2.582C19.896,28.327,18.74,27.17,17.313,27.17z M27.23,27.17
		c-1.428,0-2.584,1.156-2.584,2.584c0,1.426,1.156,2.582,2.584,2.582c1.427,0,2.582-1.156,2.582-2.582
		C29.812,28.327,28.657,27.17,27.23,27.17z"/>
</g>
</svg>